<?xml version="1.0" encoding="UTF-8"?>
<svg id="Layer_1" xmlns="http://www.w3.org/2000/svg" version="1.1" viewBox="0 0 2000 2000">
  <!-- Generator: Adobe Illustrator 29.0.0, SVG Export Plug-In . SVG Version: 2.1.0 Build 186)  -->
  <defs>
    <style>
      .st0 {
        font-family: VarienRegular, Varien;
        font-size: 376.2px;
      }

      .st0, .st1 {
        fill: #dcdcdc;
      }

      .st2 {
        fill: #8c50f0;
      }

      .st3, .st4 {
        fill: #737373;
      }

      .st4 {
        font-family: CorbelLight, Corbel;
        font-size: 228.99px;
      }
    </style>
  </defs>
  <path class="st1" d="M749.09,647.67l176.87-117.06h-451.13c-41.97,92.38-60.15,197-47.58,305.14,9.96,85.7,38.22,164.81,80.39,233.93l241.45-422.01Z"/>
  <path class="st1" d="M771.04,924.34l-12.94-211.7-225.56,390.69c59.02,82.54,140.53,150.59,240.47,193.78,79.2,34.23,161.84,49.3,242.79,47.34l-244.75-420.11Z"/>
  <path class="st3" d="M1021.62,1039.69l-189.81-94.65,225.56,390.69c100.99-9.85,200.68-46.41,288.05-111.36,69.24-51.48,123.62-115.51,162.39-186.59l-486.2,1.91Z"/>
  <path class="st2" d="M1250.25,886.32l-176.87,117.06h451.13c41.97-92.38,60.15-197,47.58-305.14-9.96-85.7-38.22-164.81-80.39-233.93l-241.45,422.01Z"/>
  <path class="st1" d="M977.72,490.33l189.81,94.65-225.56-390.69c-100.99,9.85-200.68,46.41-288.05,111.36-69.24,51.48-123.62,115.51-162.39,186.59l486.2-1.91Z"/>
  <path class="st1" d="M1361.46,230.14c-44.28-34.52-93.63-64.03-147.57-87.34-92.51-39.98-189.05-57.59-283.6-55.3l285.9,490.73,11.72,191.83c1.01,16.54,22.89,21.7,31.17,7.34l156.5-271.07c53.49-92.65,30.26-210.41-54.12-276.19ZM1290.02,591.43c-26.99.13-48.98-21.64-49.11-48.63-.13-26.99,21.64-48.98,48.63-49.11,26.99-.13,48.98,21.64,49.11,48.63.13,26.99-21.64,48.98-48.63,49.11Z"/>
  <text class="st0" transform="translate(50.33 1658.81)"><tspan x="0" y="0">ARMORED</tspan></text>
  <text class="st4" transform="translate(212.12 1851.76) scale(1 .87)"><tspan x="0" y="0">PRODUCTIONS</tspan></text>
</svg>