<?xml version="1.0" encoding="UTF-8"?>
<svg id="Layer_1" xmlns="http://www.w3.org/2000/svg" version="1.1" viewBox="0 0 2000 2000">
  <!-- Generator: Adobe Illustrator 29.0.0, SVG Export Plug-In . SVG Version: 2.1.0 Build 186)  -->
  <defs>
    <style>
      .st0 {
        fill: #8c50f0;
      }

      .st1 {
        fill: #737373;
      }

      .st2 {
        fill: #dcdcdc;
      }
    </style>
  </defs>
  <path class="st2" d="M642.48,902.77l252.51-167.12H250.93c-59.92,131.89-85.87,281.25-67.93,435.63,14.22,122.35,54.57,235.3,114.77,333.97l344.71-602.49Z"/>
  <path class="st2" d="M673.82,1297.77l-18.47-302.24-322.03,557.77c84.26,117.84,200.63,214.99,343.3,276.65,113.07,48.86,231.06,70.39,346.62,67.59l-349.42-599.77Z"/>
  <path class="st1" d="M1031.56,1462.45l-270.98-135.12,322.03,557.77c144.18-14.06,286.51-66.26,411.24-158.99,98.85-73.49,176.49-164.91,231.84-266.38l-694.13,2.72Z"/>
  <path class="st0" d="M1357.97,1243.49l-252.51,167.12h644.06c59.92-131.89,85.87-281.25,67.93-435.63-14.22-122.35-54.57-235.3-114.77-333.97l-344.71,602.49Z"/>
  <path class="st2" d="M968.88,678.14l270.98,135.12L917.84,255.49c-144.18,14.06-286.51,66.26-411.24,158.99-98.85,73.49-176.49,164.91-231.84,266.38l694.13-2.72Z"/>
  <path class="st2" d="M1516.74,306.68c-63.22-49.28-133.67-91.42-210.68-124.7-132.08-57.08-269.9-82.22-404.89-78.95l408.16,700.6,16.74,273.87c1.44,23.62,32.68,30.97,44.51,10.48l223.43-386.99c76.37-132.28,43.2-300.4-77.27-394.31ZM1414.75,822.47c-38.54.19-69.93-30.89-70.12-69.43-.19-38.54,30.89-69.93,69.43-70.12,38.53-.19,69.93,30.89,70.12,69.43.19,38.53-30.89,69.93-69.43,70.12Z"/>
</svg>